<svg width="113" height="112" viewBox="0 0 113 112" fill="none" xmlns="http://www.w3.org/2000/svg">
<rect x="0.5" y="0.5" width="112" height="111" rx="3.5" stroke="#FD8061"/>
<rect x="6.5" y="5.5" width="99" height="101" rx="3.5" stroke="#F2F2F2"/>
<path d="M32.044 17.774V22.454H21.28V29.096H30.244V33.794H21.28V44H15.16V17.774H32.044ZM41.2831 34.298V44H35.1991V17.774H43.7311C45.6271 17.774 47.2411 17.972 48.5731 18.368C49.9171 18.752 51.0091 19.292 51.8491 19.988C52.7011 20.684 53.3191 21.506 53.7031 22.454C54.0871 23.402 54.2791 24.434 54.2791 25.55C54.2791 26.402 54.1651 27.206 53.9371 27.962C53.7091 28.718 53.3671 29.42 52.9111 30.068C52.4671 30.704 51.9151 31.274 51.2551 31.778C50.6071 32.282 49.8571 32.696 49.0051 33.02C49.4131 33.224 49.7911 33.476 50.1391 33.776C50.4991 34.076 50.8111 34.442 51.0751 34.874L56.6551 44H51.1471C50.1271 44 49.3951 43.616 48.9511 42.848L44.5951 35.234C44.4031 34.898 44.1751 34.658 43.9111 34.514C43.6591 34.37 43.2991 34.298 42.8311 34.298H41.2831ZM41.2831 30.104H43.7311C44.5591 30.104 45.2611 30.002 45.8371 29.798C46.4251 29.582 46.9051 29.288 47.2771 28.916C47.6491 28.544 47.9191 28.112 48.0871 27.62C48.2551 27.116 48.3391 26.576 48.3391 26C48.3391 24.848 47.9611 23.948 47.2051 23.3C46.4611 22.652 45.3031 22.328 43.7311 22.328H41.2831V30.104ZM76.0245 17.774V22.454H65.2605V28.574H73.5045V33.074H65.2605V39.32H76.0245V44H59.1405V17.774H76.0245ZM96.3799 17.774V22.454H85.6159V28.574H93.8599V33.074H85.6159V39.32H96.3799V44H79.4959V17.774H96.3799ZM20.785 90.006C20.905 90.234 21.019 90.471 21.127 90.717C21.241 90.963 21.349 91.215 21.451 91.473C21.553 91.209 21.661 90.954 21.775 90.708C21.889 90.456 22.006 90.213 22.126 89.979L25.492 83.355C25.552 83.241 25.612 83.154 25.672 83.094C25.738 83.028 25.81 82.98 25.888 82.95C25.966 82.92 26.053 82.902 26.149 82.896C26.251 82.89 26.368 82.887 26.5 82.887H28.822V96H26.14V88.458C26.14 88.092 26.158 87.696 26.194 87.27L22.72 94.011C22.612 94.221 22.465 94.38 22.279 94.488C22.099 94.596 21.892 94.65 21.658 94.65H21.244C21.01 94.65 20.8 94.596 20.614 94.488C20.434 94.38 20.29 94.221 20.182 94.011L16.69 87.261C16.714 87.471 16.732 87.681 16.744 87.891C16.756 88.095 16.762 88.284 16.762 88.458V96H14.08V82.887H16.402C16.534 82.887 16.648 82.89 16.744 82.896C16.846 82.902 16.936 82.92 17.014 82.95C17.092 82.98 17.161 83.028 17.221 83.094C17.287 83.154 17.35 83.241 17.41 83.355L20.785 90.006ZM48.6122 89.439C48.6122 90.387 48.4472 91.269 48.1172 92.085C47.7932 92.901 47.3342 93.612 46.7402 94.218C46.1462 94.818 45.4292 95.289 44.5892 95.631C43.7552 95.973 42.8282 96.144 41.8082 96.144C40.7882 96.144 39.8582 95.973 39.0182 95.631C38.1782 95.289 37.4582 94.818 36.8582 94.218C36.2642 93.612 35.8022 92.901 35.4722 92.085C35.1482 91.269 34.9862 90.387 34.9862 89.439C34.9862 88.491 35.1482 87.609 35.4722 86.793C35.8022 85.977 36.2642 85.269 36.8582 84.669C37.4582 84.069 38.1782 83.598 39.0182 83.256C39.8582 82.914 40.7882 82.743 41.8082 82.743C42.8282 82.743 43.7552 82.917 44.5892 83.265C45.4292 83.607 46.1462 84.078 46.7402 84.678C47.3342 85.278 47.7932 85.986 48.1172 86.802C48.4472 87.618 48.6122 88.497 48.6122 89.439ZM45.4982 89.439C45.4982 88.791 45.4142 88.209 45.2462 87.693C45.0782 87.171 44.8352 86.73 44.5172 86.37C44.2052 86.01 43.8212 85.734 43.3652 85.542C42.9092 85.35 42.3902 85.254 41.8082 85.254C41.2202 85.254 40.6952 85.35 40.2332 85.542C39.7772 85.734 39.3902 86.01 39.0722 86.37C38.7602 86.73 38.5202 87.171 38.3522 87.693C38.1842 88.209 38.1002 88.791 38.1002 89.439C38.1002 90.093 38.1842 90.681 38.3522 91.203C38.5202 91.719 38.7602 92.157 39.0722 92.517C39.3902 92.877 39.7772 93.153 40.2332 93.345C40.6952 93.531 41.2202 93.624 41.8082 93.624C42.3902 93.624 42.9092 93.531 43.3652 93.345C43.8212 93.153 44.2052 92.877 44.5172 92.517C44.8352 92.157 45.0782 91.719 45.2462 91.203C45.4142 90.681 45.4982 90.093 45.4982 89.439ZM56.3486 82.887C56.4806 82.887 56.5916 82.893 56.6816 82.905C56.7716 82.917 56.8526 82.941 56.9246 82.977C56.9966 83.007 57.0656 83.052 57.1316 83.112C57.1976 83.172 57.2726 83.253 57.3566 83.355L63.5846 91.23C63.5606 90.978 63.5426 90.735 63.5306 90.501C63.5186 90.261 63.5126 90.036 63.5126 89.826V82.887H66.1946V96H64.6106C64.3766 96 64.1786 95.964 64.0166 95.892C63.8546 95.82 63.6986 95.688 63.5486 95.496L57.3656 87.684C57.3836 87.912 57.3986 88.137 57.4106 88.359C57.4226 88.575 57.4286 88.779 57.4286 88.971V96H54.7466V82.887H56.3486ZM81.4741 82.887V85.227H76.0921V88.287H80.2141V90.537H76.0921V93.66H81.4741V96H73.0321V82.887H81.4741ZM94.4238 91.014V96H91.3818V91.014L86.6298 82.887H89.3118C89.5758 82.887 89.7858 82.95 89.9418 83.076C90.0978 83.196 90.2238 83.352 90.3198 83.544L92.1738 87.36C92.3238 87.666 92.4618 87.948 92.5878 88.206C92.7138 88.464 92.8248 88.719 92.9208 88.971C93.0108 88.713 93.1188 88.455 93.2448 88.197C93.3708 87.939 93.5058 87.66 93.6498 87.36L95.4858 83.544C95.5218 83.466 95.5698 83.388 95.6298 83.31C95.6958 83.232 95.7678 83.163 95.8458 83.103C95.9298 83.037 96.0228 82.986 96.1248 82.95C96.2328 82.908 96.3498 82.887 96.4758 82.887H99.1758L94.4238 91.014Z" fill="#FD8061"/>
<path d="M21.046 58.813C20.992 58.915 20.914 58.966 20.812 58.966C20.734 58.966 20.632 58.912 20.506 58.804C20.386 58.69 20.221 58.567 20.011 58.435C19.801 58.297 19.537 58.171 19.219 58.057C18.907 57.943 18.52 57.886 18.058 57.886C17.596 57.886 17.188 57.952 16.834 58.084C16.486 58.216 16.192 58.396 15.952 58.624C15.718 58.852 15.538 59.116 15.412 59.416C15.292 59.716 15.232 60.031 15.232 60.361C15.232 60.793 15.322 61.15 15.502 61.432C15.688 61.714 15.931 61.954 16.231 62.152C16.531 62.35 16.87 62.518 17.248 62.656C17.632 62.788 18.025 62.92 18.427 63.052C18.829 63.184 19.219 63.331 19.597 63.493C19.981 63.649 20.323 63.847 20.623 64.087C20.923 64.327 21.163 64.624 21.343 64.978C21.529 65.326 21.622 65.761 21.622 66.283C21.622 66.817 21.529 67.321 21.343 67.795C21.163 68.263 20.899 68.671 20.551 69.019C20.203 69.367 19.777 69.643 19.273 69.847C18.769 70.045 18.193 70.144 17.545 70.144C16.705 70.144 15.982 69.997 15.376 69.703C14.77 69.403 14.239 68.995 13.783 68.479L14.035 68.083C14.107 67.993 14.191 67.948 14.287 67.948C14.341 67.948 14.41 67.984 14.494 68.056C14.578 68.128 14.68 68.218 14.8 68.326C14.92 68.428 15.064 68.542 15.232 68.668C15.4 68.788 15.595 68.902 15.817 69.01C16.039 69.112 16.294 69.199 16.582 69.271C16.87 69.343 17.197 69.379 17.563 69.379C18.067 69.379 18.517 69.304 18.913 69.154C19.309 68.998 19.642 68.788 19.912 68.524C20.188 68.26 20.398 67.948 20.542 67.588C20.686 67.222 20.758 66.832 20.758 66.418C20.758 65.968 20.665 65.599 20.479 65.311C20.299 65.017 20.059 64.774 19.759 64.582C19.459 64.384 19.117 64.219 18.733 64.087C18.355 63.955 17.965 63.826 17.563 63.7C17.161 63.574 16.768 63.433 16.384 63.277C16.006 63.121 15.667 62.923 15.367 62.683C15.067 62.437 14.824 62.134 14.638 61.774C14.458 61.408 14.368 60.952 14.368 60.406C14.368 59.98 14.449 59.569 14.611 59.173C14.773 58.777 15.01 58.429 15.322 58.129C15.634 57.823 16.018 57.58 16.474 57.4C16.936 57.214 17.461 57.121 18.049 57.121C18.709 57.121 19.3 57.226 19.822 57.436C20.35 57.646 20.83 57.967 21.262 58.399L21.046 58.813ZM32.6103 57.265V58.048H28.1373V70H27.2193V58.048H22.7193V57.265H32.6103ZM43.3715 70H42.6605C42.5765 70 42.5075 69.979 42.4535 69.937C42.3995 69.889 42.3575 69.829 42.3275 69.757L40.8245 66.058H34.5695L33.0755 69.757C33.0515 69.823 33.0095 69.88 32.9495 69.928C32.8895 69.976 32.8175 70 32.7335 70H32.0315L37.2425 57.265H38.1605L43.3715 70ZM34.8485 65.374H40.5545L37.9535 58.939C37.9115 58.837 37.8695 58.723 37.8275 58.597C37.7855 58.465 37.7435 58.327 37.7015 58.183C37.6595 58.327 37.6175 58.465 37.5755 58.597C37.5335 58.723 37.4915 58.84 37.4495 58.948L34.8485 65.374ZM46.576 64.24V70H45.658V57.265H48.907C50.377 57.265 51.475 57.55 52.201 58.12C52.927 58.684 53.29 59.515 53.29 60.613C53.29 61.099 53.206 61.543 53.038 61.945C52.87 62.347 52.627 62.701 52.309 63.007C51.997 63.307 51.619 63.556 51.175 63.754C50.731 63.946 50.23 64.072 49.672 64.132C49.816 64.222 49.945 64.342 50.059 64.492L54.442 70H53.641C53.545 70 53.461 69.982 53.389 69.946C53.323 69.91 53.257 69.85 53.191 69.766L49.114 64.6C49.012 64.468 48.901 64.375 48.781 64.321C48.667 64.267 48.487 64.24 48.241 64.24H46.576ZM46.576 63.556H48.79C49.354 63.556 49.858 63.49 50.302 63.358C50.752 63.22 51.13 63.025 51.436 62.773C51.748 62.521 51.985 62.218 52.147 61.864C52.309 61.51 52.39 61.111 52.39 60.667C52.39 59.761 52.093 59.089 51.499 58.651C50.905 58.213 50.041 57.994 48.907 57.994H46.576V63.556ZM64.6552 57.265V58.048H60.1822V70H59.2642V58.048H54.7642V57.265H64.6552ZM68.1285 70H67.2015V57.265H68.1285V70ZM72.6974 57.265C72.7814 57.265 72.8474 57.277 72.8954 57.301C72.9434 57.319 72.9944 57.364 73.0484 57.436L81.2924 68.47C81.2744 68.29 81.2654 68.116 81.2654 67.948V57.265H82.0754V70H81.6344C81.4964 70 81.3854 69.94 81.3014 69.82L73.0214 58.768C73.0394 58.948 73.0484 59.119 73.0484 59.281V70H72.2474V57.265H72.6974ZM91.3249 69.397C91.7629 69.397 92.1619 69.376 92.5219 69.334C92.8819 69.286 93.2149 69.217 93.5209 69.127C93.8329 69.037 94.1269 68.929 94.4029 68.803C94.6849 68.671 94.9669 68.524 95.2489 68.362V64.933H92.8009C92.7349 64.933 92.6779 64.912 92.6299 64.87C92.5879 64.828 92.5669 64.78 92.5669 64.726V64.222H96.0859V68.749C95.7679 68.971 95.4379 69.169 95.0959 69.343C94.7539 69.517 94.3879 69.664 93.9979 69.784C93.6079 69.898 93.1879 69.985 92.7379 70.045C92.2879 70.111 91.7959 70.144 91.2619 70.144C90.3439 70.144 89.5039 69.991 88.7419 69.685C87.9859 69.373 87.3349 68.935 86.7889 68.371C86.2489 67.801 85.8289 67.114 85.5289 66.31C85.2289 65.506 85.0789 64.612 85.0789 63.628C85.0789 62.644 85.2289 61.753 85.5289 60.955C85.8289 60.151 86.2549 59.467 86.8069 58.903C87.3589 58.333 88.0279 57.895 88.8139 57.589C89.6059 57.277 90.4909 57.121 91.4689 57.121C91.9549 57.121 92.4019 57.154 92.8099 57.22C93.2239 57.286 93.6079 57.385 93.9619 57.517C94.3159 57.643 94.6459 57.802 94.9519 57.994C95.2579 58.18 95.5519 58.396 95.8339 58.642L95.5909 59.038C95.5369 59.128 95.4619 59.173 95.3659 59.173C95.3119 59.173 95.2609 59.161 95.2129 59.137C95.1229 59.101 94.9909 59.017 94.8169 58.885C94.6489 58.753 94.4179 58.615 94.1239 58.471C93.8359 58.327 93.4729 58.198 93.0349 58.084C92.5969 57.97 92.0659 57.913 91.4419 57.913C90.6139 57.913 89.8669 58.045 89.2009 58.309C88.5349 58.573 87.9649 58.951 87.4909 59.443C87.0229 59.935 86.6599 60.535 86.4019 61.243C86.1499 61.951 86.0239 62.746 86.0239 63.628C86.0239 64.528 86.1529 65.335 86.4109 66.049C86.6689 66.763 87.0289 67.369 87.4909 67.867C87.9589 68.359 88.5169 68.737 89.1649 69.001C89.8189 69.265 90.5389 69.397 91.3249 69.397Z" fill="#F2F2F2"/>
</svg>
