<svg width="157" height="883" viewBox="0 0 157 883" fill="none" xmlns="http://www.w3.org/2000/svg">
<path fill-rule="evenodd" clip-rule="evenodd" d="M457.469 1081.95C371.426 1057.08 313.895 947.358 242.086 871.378C168.417 793.431 28.3779 767.763 31.994 631.768C36.1617 475.025 236.985 477.578 256.652 323.562C281.661 127.708 55.2867 -84.675 142.558 -234.082C220.695 -367.851 354.492 -107.264 457.469 -20.2323C508.807 23.1562 540.978 97.1393 590.693 144.664C646.125 197.653 714.625 205.195 763.134 271.965C850.275 391.912 983.881 500.792 978.868 678.973C974.144 846.925 841.069 939.543 742.205 1015.95C654.534 1083.71 554.149 1109.9 457.469 1081.95Z" fill="#FD8061"/>
<path fill-rule="evenodd" clip-rule="evenodd" d="M503.856 950.521C417.813 925.647 360.282 815.926 288.473 739.947C214.805 662 74.7651 636.332 78.3811 500.336C82.5489 343.593 283.372 346.147 303.039 192.131C328.049 -3.72328 101.674 -216.107 188.945 -365.514C267.083 -499.283 400.88 -238.695 503.856 -151.664C555.194 -108.275 587.365 -34.2923 637.081 13.2327C692.512 66.2215 761.012 73.7631 809.521 140.534C896.662 260.481 1030.27 369.361 1025.26 547.542C1020.53 715.494 887.456 808.112 788.592 884.521C700.922 952.28 600.537 978.469 503.856 950.521Z" stroke="#FD8061"/>
<path fill-rule="evenodd" clip-rule="evenodd" d="M442.006 950.521C355.963 925.647 298.432 815.926 226.623 739.947C152.955 662 12.915 636.332 16.5311 500.336C20.6988 343.593 221.522 346.147 241.189 192.131C266.199 -3.72328 39.8238 -216.107 127.095 -365.514C205.232 -499.283 339.03 -238.695 442.006 -151.664C493.344 -108.275 525.515 -34.2923 575.231 13.2327C630.662 66.2215 699.162 73.7631 747.671 140.534C834.812 260.481 968.418 369.361 963.405 547.542C958.681 715.494 825.606 808.112 726.742 884.521C639.072 952.28 538.686 978.469 442.006 950.521Z" stroke="#FD8061"/>
<path fill-rule="evenodd" clip-rule="evenodd" d="M488.394 950.521C402.35 925.647 344.82 815.926 273.011 739.947C199.342 662 59.3027 636.332 62.9187 500.336C67.0865 343.593 267.91 346.147 287.577 192.131C312.586 -3.72328 86.2115 -216.107 173.483 -365.514C251.62 -499.283 385.417 -238.695 488.394 -151.664C539.731 -108.275 571.903 -34.2923 621.618 13.2327C677.049 66.2215 745.55 73.7631 794.059 140.534C881.2 260.481 1014.81 369.361 1009.79 547.542C1005.07 715.494 871.993 808.112 773.13 884.521C685.459 952.28 585.074 978.469 488.394 950.521Z" stroke="#FD8061"/>
<path fill-rule="evenodd" clip-rule="evenodd" d="M426.543 950.521C340.5 925.647 282.97 815.926 211.16 739.947C137.492 662 -2.54765 636.332 1.0684 500.336C5.23612 343.593 206.059 346.147 225.727 192.131C250.736 -3.72328 24.3611 -216.107 111.633 -365.514C189.77 -499.283 323.567 -238.695 426.543 -151.664C477.881 -108.275 510.053 -34.2923 559.768 13.2327C615.199 66.2215 683.7 73.7631 732.208 140.534C819.35 260.481 952.955 369.361 947.943 547.542C943.218 715.494 810.143 808.112 711.28 884.521C623.609 952.28 523.224 978.469 426.543 950.521Z" stroke="#FD8061"/>
<path fill-rule="evenodd" clip-rule="evenodd" d="M472.931 950.521C386.888 925.647 329.357 815.926 257.548 739.947C183.88 662 43.84 636.332 47.4561 500.336C51.6238 343.593 252.447 346.147 272.114 192.131C297.124 -3.72328 70.7488 -216.107 158.02 -365.514C236.157 -499.283 369.955 -238.695 472.931 -151.664C524.269 -108.275 556.44 -34.2923 606.156 13.2327C661.587 66.2215 730.087 73.7631 778.596 140.534C865.737 260.481 999.343 369.361 994.33 547.542C989.606 715.494 856.531 808.112 757.667 884.521C669.997 952.28 569.612 978.469 472.931 950.521Z" stroke="#FD8061"/>
<path fill-rule="evenodd" clip-rule="evenodd" d="M457.468 950.521C371.425 925.647 313.895 815.926 242.085 739.947C168.417 662 28.3774 636.332 31.9935 500.336C36.1612 343.593 236.985 346.147 256.652 192.131C281.661 -3.7233 55.2862 -216.107 142.558 -365.514C220.695 -499.283 354.492 -238.696 457.468 -151.664C508.806 -108.275 540.978 -34.2923 590.693 13.2327C646.124 66.2215 714.625 73.7632 763.133 140.534C850.275 260.481 983.88 369.361 978.868 547.542C974.143 715.494 841.068 808.112 742.205 884.521C654.534 952.28 554.149 978.469 457.468 950.521Z" stroke="#FD8061"/>
</svg>
