<svg width="350" height="350" viewBox="0 0 350 350" fill="none" xmlns="http://www.w3.org/2000/svg">
<path d="M289.787 138.347C312.249 138.347 330.458 120.138 330.458 97.6759C330.458 75.2138 312.249 57.0046 289.787 57.0046C267.325 57.0046 249.116 75.2138 249.116 97.6759C249.116 120.138 267.325 138.347 289.787 138.347Z" stroke="#C1C1C1" stroke-miterlimit="10" stroke-dasharray="11.95 11.95"/>
<path d="M267.944 81.9259C276.921 85.1019 285.866 88.9583 292.153 95.0185C298.44 101.079 301.583 109.796 297.824 117.088C292.769 126.843 276.824 132.514 276.727 143.079C276.662 150.63 285.347 156.431 294.097 159.153C302.847 161.907 312.537 162.88 320.477 166.898C332.468 172.958 338.107 184.69 340.407 195.968C342.806 207.667 341.833 220.986 331.56 229.444C318.824 240.009 297.694 238.843 279.644 236.574C255.532 233.56 231.518 230.06 207.505 226.528C154.875 218.815 102.245 211.069 49.6157 203.356C43.9768 202.514 38.111 201.606 33.5092 198.852C24.4027 193.343 23.6249 181.968 28.9397 173.833C34.2222 165.699 44.0092 160.19 53.7314 155.426C63.4536 150.662 73.7268 146.125 81.0185 139.06C88.3101 131.995 91.9398 121.56 86.3981 113.523C81.7314 106.718 71.6851 103.088 67.3101 96.1528C61.5416 87.0139 68.1851 75.3796 78.6203 69.5463C89.0555 63.713 220.435 65.1713 267.944 81.9259Z" fill="#F7F7F7"/>
<path d="M333.505 325.565H20.3842C18.6991 325.565 17.3055 324.171 17.3055 322.486V310.755C17.3055 309.069 18.6991 307.676 20.3842 307.676H333.505C335.19 307.676 336.583 309.069 336.583 310.755V322.486C336.583 324.171 335.19 325.565 333.505 325.565Z" fill="#F2F2F2"/>
<path d="M190.912 316.62H71.199C61.1527 316.62 52.9861 308.486 52.9861 298.407V52.2407C52.9861 42.1944 61.1203 34.0278 71.199 34.0278H190.912C200.958 34.0278 209.125 42.162 209.125 52.2407V298.44C209.093 308.486 200.958 316.62 190.912 316.62Z" fill="#1C1E52"/>
<path d="M189.389 308H72.7222C66.5972 308 61.6389 303.042 61.6389 296.917V54.2824C61.6389 48.1574 66.5972 43.1991 72.7222 43.1991H189.389C195.514 43.1991 200.472 48.1574 200.472 54.2824V296.917C200.505 303.042 195.514 308 189.389 308Z" fill="white"/>
<path d="M86.6573 42.0972L93.9166 51.3333C96.8333 55.0278 101.079 57.1667 105.583 57.1667H156.009C160.514 57.1667 164.759 55.0278 167.676 51.3333L174.935 42.0972H86.6573Z" fill="#1C1E52"/>
<path d="M40.4444 74.4074H221.667C224.713 74.4074 227.176 76.8704 227.176 79.9167V105.972C227.176 109.019 224.713 111.481 221.667 111.481H40.4444C37.3981 111.481 34.9352 109.019 34.9352 105.972V79.9167C34.9352 76.8704 37.3981 74.4074 40.4444 74.4074Z" fill="#FED47E" fill-opacity="0.5"/>
<path d="M51.8519 104.352C58.1162 104.352 63.1945 99.2736 63.1945 93.0093C63.1945 86.7449 58.1162 81.6667 51.8519 81.6667C45.5875 81.6667 40.5093 86.7449 40.5093 93.0093C40.5093 99.2736 45.5875 104.352 51.8519 104.352Z" fill="white"/>
<path d="M173.056 88.1481H72.9167C71.8473 88.1481 70.9723 87.2731 70.9723 86.2037C70.9723 85.1343 71.8473 84.2593 72.9167 84.2593H173.056C174.125 84.2593 175 85.1343 175 86.2037C175 87.2731 174.125 88.1481 173.056 88.1481Z" fill="#1C1E52"/>
<path d="M173.056 95.6019H72.9167C71.8473 95.6019 70.9723 94.7269 70.9723 93.6574C70.9723 92.588 71.8473 91.713 72.9167 91.713H173.056C174.125 91.713 175 92.588 175 93.6574C175 94.7269 174.125 95.6019 173.056 95.6019Z" fill="#1C1E52"/>
<path d="M173.056 103.056H72.9167C71.8473 103.056 70.9723 102.181 70.9723 101.111C70.9723 100.042 71.8473 99.1667 72.9167 99.1667H173.056C174.125 99.1667 175 100.042 175 101.111C175 102.181 174.125 103.056 173.056 103.056Z" fill="#1C1E52"/>
<path d="M209.028 62.1898L218.037 81.9907L238.94 83.9352L222.412 99.3287L227.532 119.097L209.028 107.625L190.523 119.097L195.643 99.3287L179.116 83.9352L200.018 81.9907L209.028 62.1898Z" fill="#FD8061"/>
<path d="M67.1805 123.634H194.736C196.907 123.634 198.657 125.384 198.657 127.556V146.481C198.657 148.653 196.907 150.403 194.736 150.403H67.1805C65.0092 150.403 63.2592 148.653 63.2592 146.481V127.556C63.2268 125.384 65.0092 123.634 67.1805 123.634Z" fill="#FD8061"/>
<path d="M75.4768 145.282C80.005 145.282 83.6759 141.612 83.6759 137.083C83.6759 132.555 80.005 128.884 75.4768 128.884C70.9486 128.884 67.2777 132.555 67.2777 137.083C67.2777 141.612 70.9486 145.282 75.4768 145.282Z" fill="white"/>
<path d="M163.042 133.551H90.6759C89.8981 133.551 89.2823 132.903 89.2823 132.157C89.2823 131.38 89.9305 130.764 90.6759 130.764H163.042C163.819 130.764 164.435 131.412 164.435 132.157C164.435 132.935 163.819 133.551 163.042 133.551Z" fill="#1C1E52"/>
<path d="M163.042 138.963H90.6759C89.8981 138.963 89.2823 138.315 89.2823 137.569C89.2823 136.792 89.9305 136.176 90.6759 136.176H163.042C163.819 136.176 164.435 136.824 164.435 137.569C164.435 138.315 163.819 138.963 163.042 138.963Z" fill="#1C1E52"/>
<path d="M163.042 144.343H90.6759C89.8981 144.343 89.2823 143.694 89.2823 142.949C89.2823 142.171 89.9305 141.556 90.6759 141.556H163.042C163.819 141.556 164.435 142.204 164.435 142.949C164.435 143.694 163.819 144.343 163.042 144.343Z" fill="#1C1E52"/>
<path d="M183.102 126.81L186.31 133.907L193.796 134.588L187.866 140.097L189.713 147.162L183.102 143.046L176.491 147.162L178.338 140.097L172.407 134.588L179.894 133.907L183.102 126.81Z" stroke="#F7F7F7" stroke-miterlimit="10"/>
<path d="M67.1805 158.472H194.736C196.907 158.472 198.657 160.222 198.657 162.394V181.319C198.657 183.491 196.907 185.241 194.736 185.241H67.1805C65.0092 185.241 63.2592 183.491 63.2592 181.319V162.394C63.2268 160.222 65.0092 158.472 67.1805 158.472Z" fill="#FD8061"/>
<path d="M75.4768 180.12C80.005 180.12 83.6759 176.45 83.6759 171.921C83.6759 167.393 80.005 163.722 75.4768 163.722C70.9486 163.722 67.2777 167.393 67.2777 171.921C67.2777 176.45 70.9486 180.12 75.4768 180.12Z" fill="white"/>
<path d="M163.042 168.389H90.6759C89.8981 168.389 89.2823 167.741 89.2823 166.995C89.2823 166.218 89.9305 165.602 90.6759 165.602H163.042C163.819 165.602 164.435 166.25 164.435 166.995C164.435 167.773 163.819 168.389 163.042 168.389Z" fill="#1C1E52"/>
<path d="M163.042 173.801H90.6759C89.8981 173.801 89.2823 173.153 89.2823 172.407C89.2823 171.63 89.9305 171.014 90.6759 171.014H163.042C163.819 171.014 164.435 171.662 164.435 172.407C164.435 173.153 163.819 173.801 163.042 173.801Z" fill="#1C1E52"/>
<path d="M163.042 179.181H90.6759C89.8981 179.181 89.2823 178.532 89.2823 177.787C89.2823 177.009 89.9305 176.394 90.6759 176.394H163.042C163.819 176.394 164.435 177.042 164.435 177.787C164.435 178.532 163.819 179.181 163.042 179.181Z" fill="#1C1E52"/>
<path d="M183.102 161.648L186.31 168.745L193.796 169.426L187.866 174.935L189.713 182L183.102 177.884L176.491 182L178.338 174.935L172.407 169.426L179.894 168.745L183.102 161.648Z" stroke="#F7F7F7" stroke-miterlimit="10"/>
<path d="M67.1805 193.31H194.736C196.907 193.31 198.657 195.06 198.657 197.231V216.157C198.657 218.329 196.907 220.079 194.736 220.079H67.1805C65.0092 220.079 63.2592 218.329 63.2592 216.157V197.231C63.2268 195.06 65.0092 193.31 67.1805 193.31Z" fill="#FD8061"/>
<path d="M75.4768 214.958C80.005 214.958 83.6759 211.287 83.6759 206.759C83.6759 202.231 80.005 198.56 75.4768 198.56C70.9486 198.56 67.2777 202.231 67.2777 206.759C67.2777 211.287 70.9486 214.958 75.4768 214.958Z" fill="white"/>
<path d="M163.042 203.227H90.6759C89.8981 203.227 89.2823 202.579 89.2823 201.833C89.2823 201.056 89.9305 200.44 90.6759 200.44H163.042C163.819 200.44 164.435 201.088 164.435 201.833C164.435 202.611 163.819 203.227 163.042 203.227Z" fill="#1C1E52"/>
<path d="M163.042 208.639H90.6759C89.8981 208.639 89.2823 207.991 89.2823 207.245C89.2823 206.468 89.9305 205.852 90.6759 205.852H163.042C163.819 205.852 164.435 206.5 164.435 207.245C164.435 207.991 163.819 208.639 163.042 208.639Z" fill="#1C1E52"/>
<path d="M163.042 214.019H90.6759C89.8981 214.019 89.2823 213.37 89.2823 212.625C89.2823 211.847 89.9305 211.231 90.6759 211.231H163.042C163.819 211.231 164.435 211.88 164.435 212.625C164.435 213.37 163.819 214.019 163.042 214.019Z" fill="#1C1E52"/>
<path d="M183.102 196.486L186.31 203.583L193.796 204.264L187.866 209.773L189.713 216.838L183.102 212.722L176.491 216.838L178.338 209.773L172.407 204.264L179.894 203.583L183.102 196.486Z" stroke="#F7F7F7" stroke-miterlimit="10"/>
<path d="M67.1805 228.148H194.736C196.907 228.148 198.657 229.898 198.657 232.069V250.995C198.657 253.167 196.907 254.917 194.736 254.917H67.1805C65.0092 254.917 63.2592 253.167 63.2592 250.995V232.069C63.2268 229.898 65.0092 228.148 67.1805 228.148Z" fill="#FD8061"/>
<path d="M75.4768 249.796C80.005 249.796 83.6759 246.125 83.6759 241.597C83.6759 237.069 80.005 233.398 75.4768 233.398C70.9486 233.398 67.2777 237.069 67.2777 241.597C67.2777 246.125 70.9486 249.796 75.4768 249.796Z" fill="white"/>
<path d="M163.042 238.065H90.6759C89.8981 238.065 89.2823 237.417 89.2823 236.671C89.2823 235.894 89.9305 235.278 90.6759 235.278H163.042C163.819 235.278 164.435 235.926 164.435 236.671C164.435 237.449 163.819 238.065 163.042 238.065Z" fill="#1C1E52"/>
<path d="M163.042 243.477H90.6759C89.8981 243.477 89.2823 242.829 89.2823 242.083C89.2823 241.306 89.9305 240.69 90.6759 240.69H163.042C163.819 240.69 164.435 241.338 164.435 242.083C164.435 242.829 163.819 243.477 163.042 243.477Z" fill="#1C1E52"/>
<path d="M163.042 248.857H90.6759C89.8981 248.857 89.2823 248.208 89.2823 247.463C89.2823 246.685 89.9305 246.069 90.6759 246.069H163.042C163.819 246.069 164.435 246.718 164.435 247.463C164.435 248.208 163.819 248.857 163.042 248.857Z" fill="#1C1E52"/>
<path d="M183.102 231.324L186.31 238.421L193.796 239.102L187.866 244.611L189.713 251.676L183.102 247.56L176.491 251.676L178.338 244.611L172.407 239.102L179.894 238.421L183.102 231.324Z" stroke="#F7F7F7" stroke-miterlimit="10"/>
<path d="M67.1805 262.986H194.736C196.907 262.986 198.657 264.736 198.657 266.907V285.833C198.657 288.005 196.907 289.755 194.736 289.755H67.1805C65.0092 289.755 63.2592 288.005 63.2592 285.833V266.907C63.2268 264.736 65.0092 262.986 67.1805 262.986Z" fill="#FD8061"/>
<path d="M75.4768 284.634C80.005 284.634 83.6759 280.963 83.6759 276.435C83.6759 271.907 80.005 268.236 75.4768 268.236C70.9486 268.236 67.2777 271.907 67.2777 276.435C67.2777 280.963 70.9486 284.634 75.4768 284.634Z" fill="white"/>
<path d="M163.042 272.903H90.6759C89.8981 272.903 89.2823 272.255 89.2823 271.509C89.2823 270.731 89.9305 270.116 90.6759 270.116H163.042C163.819 270.116 164.435 270.764 164.435 271.509C164.435 272.287 163.819 272.903 163.042 272.903Z" fill="#1C1E52"/>
<path d="M163.042 278.315H90.6759C89.8981 278.315 89.2823 277.667 89.2823 276.921C89.2823 276.144 89.9305 275.528 90.6759 275.528H163.042C163.819 275.528 164.435 276.176 164.435 276.921C164.435 277.667 163.819 278.315 163.042 278.315Z" fill="#1C1E52"/>
<path d="M163.042 283.694H90.6759C89.8981 283.694 89.2823 283.046 89.2823 282.301C89.2823 281.523 89.9305 280.907 90.6759 280.907H163.042C163.819 280.907 164.435 281.556 164.435 282.301C164.435 283.046 163.819 283.694 163.042 283.694Z" fill="#1C1E52"/>
<path d="M183.102 266.162L186.31 273.259L193.796 273.94L187.866 279.449L189.713 286.514L183.102 282.398L176.491 286.514L178.338 279.449L172.407 273.94L179.894 273.259L183.102 266.162Z" stroke="#F7F7F7" stroke-miterlimit="10"/>
<path d="M312.667 316.426C306.12 316.426 303.366 311.208 302.296 305.667C301.065 299.412 301.972 292.769 301.972 292.769H323.361C323.361 292.769 323.394 293.028 323.426 293.481C323.847 297.435 325.144 316.426 312.667 316.426Z" fill="#FD8061"/>
<path d="M323.361 292.801C323.361 293.255 318.565 293.643 312.667 293.643C306.768 293.643 301.972 293.255 301.972 292.801C301.972 292.347 306.768 291.958 312.667 291.958C318.565 291.958 323.361 292.315 323.361 292.801Z" fill="#FD8061"/>
<path d="M341.639 233.463C341.639 233.463 330.361 250.639 323.588 261.106C316.815 271.574 315.032 273.778 314.222 277.148C313.412 280.519 312.699 293.028 312.699 293.028H312.213C312.213 293.028 312.375 282.431 312.991 278.866C313.574 275.431 312.958 274.167 312.472 270.537C311.986 266.907 311.338 261.106 315 257.088C318.662 253.069 317.69 249.116 318.986 246.458C320.282 243.801 330.264 240.56 331.56 237.838C332.857 235.083 338.495 233.398 341.639 233.463Z" fill="#FD8061"/>
<path d="M341.639 233.463C341.639 233.463 338.107 237.481 335.676 238.875C333.245 240.236 332.144 239.037 330.264 242.343C328.417 245.648 328.352 247.106 326.634 248.792C324.949 250.477 322.907 250.574 322.745 254.269C322.583 257.963 323.556 261.106 323.556 261.106C323.556 261.106 340.926 234.338 341.639 233.463Z" fill="#1C1E52"/>
<path d="M313.607 293.028H314.125C314.125 293.028 314.287 289.593 315.648 287.94C316.523 286.87 320.25 285.639 323.944 284.181C325.986 283.37 327.995 282.495 329.519 281.523C333.796 278.801 337.912 270.019 338.269 268.431C338.398 267.88 338.463 267.556 338.431 267.329C338.431 266.907 338.204 266.843 337.847 266.421C337.685 266.227 337.134 266.292 336.519 266.486C334.671 267.037 333.116 268.333 332.144 269.986C331.236 271.542 329.81 273.486 328.06 273.94C325.014 274.75 325.273 275.236 324.171 278.347C323.069 281.426 320.25 281.944 316.718 285.574C313.153 289.204 313.607 293.028 313.607 293.028Z" fill="#FD8061"/>
<path d="M323.912 284.181C325.954 283.37 327.963 282.495 329.486 281.523C333.764 278.801 337.88 270.019 338.236 268.431C338.366 267.88 338.43 267.556 338.398 267.329C338.398 267.426 338.171 268.819 335.935 269.759C333.602 270.731 333.148 270.731 332.856 272.19C332.565 273.648 332.305 275.236 331.074 275.528C329.875 275.819 329.097 274.458 328.157 276.694C327.185 278.931 326.731 279.676 325.856 279.968C324.981 280.259 324.301 279.806 324.106 281.523C324.009 282.56 323.944 283.565 323.912 284.181Z" fill="#1C1E52"/>
<path d="M309.88 293.028H309.296C309.296 293.028 308.13 271.769 306.509 269.792C305.472 268.528 302.037 266.227 297.662 264.509C295.264 263.569 292.866 262.5 291.051 261.366C285.963 258.125 281.134 247.722 280.713 245.875C280.551 245.227 280.486 244.838 280.518 244.579C280.518 244.093 280.778 243.995 281.199 243.509C281.393 243.25 282.009 243.347 282.787 243.574C284.991 244.255 286.838 245.745 287.972 247.722C289.042 249.569 290.727 251.838 292.801 252.421C296.398 253.394 296.106 253.977 297.403 257.639C298.731 261.301 302.069 261.884 306.25 266.194C310.43 270.472 309.88 293.028 309.88 293.028Z" fill="#FD8061"/>
<path d="M297.662 264.509C295.264 263.569 292.866 262.5 291.051 261.366C285.963 258.125 281.134 247.722 280.713 245.875C280.551 245.227 280.486 244.838 280.518 244.579C280.518 244.708 280.778 246.361 283.403 247.431C286.157 248.565 286.676 248.565 287.065 250.315C287.421 252.032 287.713 253.912 289.171 254.269C290.597 254.625 291.505 253.005 292.639 255.63C293.773 258.255 294.324 259.162 295.361 259.519C296.398 259.875 297.208 259.324 297.435 261.366C297.532 262.63 297.597 263.796 297.662 264.509Z" fill="#1C1E52"/>
<path d="M312.667 316.426C306.12 316.426 303.366 311.208 302.296 305.667C308.713 303.236 316.75 299.347 323.458 293.481C323.847 297.435 325.143 316.426 312.667 316.426Z" fill="#1C1E52"/>
<path d="M38.5972 314.643C33.412 314.643 31.2407 310.495 30.3657 306.12C29.3935 301.162 30.1064 295.912 30.1064 295.912H47.0555C47.0555 295.912 47.0879 296.106 47.1203 296.463C47.4768 299.606 48.4814 314.643 38.5972 314.643Z" fill="#FD8061"/>
<path d="M47.0879 295.912C47.0879 296.268 43.2963 296.593 38.5972 296.593C33.8981 296.593 30.1064 296.301 30.1064 295.912C30.1064 295.556 33.8981 295.231 38.5972 295.231C43.2963 295.264 47.0879 295.556 47.0879 295.912Z" fill="#85DDFF"/>
<path d="M63.0972 248.921C63.0972 248.921 54.1527 262.532 48.7731 270.829C43.3935 279.125 41.9999 280.843 41.3518 283.532C40.7036 286.222 40.1527 296.106 40.1527 296.106H39.7638C39.7638 296.106 39.8935 287.713 40.3796 284.861C40.8333 282.139 40.3472 281.134 39.9583 278.282C39.5694 275.398 39.0509 270.796 41.9675 267.62C44.8842 264.412 44.1064 261.301 45.1435 259.194C46.1805 257.088 54.0879 254.528 55.0925 252.356C56.1296 250.185 60.6018 248.856 63.0972 248.921Z" fill="#FD8061"/>
<path d="M63.0973 248.921C63.0973 248.921 60.2778 252.13 58.3658 253.199C56.4538 254.301 55.5463 253.329 54.088 255.954C52.6297 258.579 52.5649 259.713 51.2038 261.074C49.8426 262.403 48.2547 262.468 48.125 265.417C47.9954 268.366 48.7732 270.861 48.7732 270.861C48.7732 270.861 62.5139 249.602 63.0973 248.921Z" fill="#1C1E52"/>
<path d="M37.9166 296.107H37.4305C37.4305 296.107 36.4907 279.255 35.2268 277.699C34.4166 276.694 31.6944 274.88 28.2268 273.519C26.3148 272.773 24.4352 271.931 22.9768 271.023C18.9583 268.463 15.1018 260.232 14.7778 258.741C14.6481 258.222 14.6157 257.931 14.6157 257.704C14.6157 257.315 14.8102 257.25 15.1666 256.861C15.3287 256.667 15.8148 256.731 16.4305 256.926C18.1805 257.444 19.6389 258.644 20.5463 260.231C21.3889 261.69 22.7176 263.505 24.3703 263.958C27.2222 264.704 26.9629 265.19 28.0324 268.074C29.0694 270.958 31.7268 271.444 35.0324 274.847C38.3379 278.218 37.9166 296.107 37.9166 296.107Z" fill="#FD8061"/>
<path d="M28.2268 273.518C26.3148 272.773 24.4352 271.931 22.9768 271.023C18.9583 268.463 15.1018 260.231 14.7778 258.741C14.6481 258.222 14.6157 257.931 14.6157 257.704C14.6157 257.801 14.8102 259.097 16.9166 259.972C19.0879 260.88 19.5092 260.88 19.8009 262.241C20.0926 263.602 20.3194 265.093 21.4537 265.384C22.5879 265.676 23.3009 264.38 24.2083 266.486C25.1157 268.56 25.537 269.273 26.3796 269.565C27.2222 269.856 27.8379 269.435 28.0324 271.023C28.1296 271.995 28.1944 272.935 28.2268 273.518Z" fill="#1C1E52"/>
<path d="M38.5972 314.644C33.412 314.644 31.2407 310.495 30.3657 306.12C35.4537 304.208 41.8379 301.097 47.1203 296.463C47.4768 299.606 48.4815 314.644 38.5972 314.644Z" fill="#1C1E52"/>
<path d="M193.215 163.93C193.215 163.93 186.294 154.222 184.338 154.283C182.387 154.344 189.518 164.429 189.518 164.429L193.215 163.93Z" fill="#FED47E"/>
<path d="M271.143 288.014H266.369V319.225H271.143V288.014Z" fill="#D3D3D3"/>
<path d="M238.789 310.086H232.004V327.432H238.789V310.086Z" fill="#FED47E"/>
<path d="M271.322 310.086H264.536V327.432H271.322V310.086Z" fill="#FED47E"/>
<path d="M232.944 118.88C232.944 118.88 233.181 131.721 238.054 132.793C242.928 133.865 248.099 118.347 248.099 118.347L232.944 118.88Z" fill="#1C1E52"/>
<path d="M259.046 117.428C259.046 117.428 261.377 120.145 260.66 125.329C259.947 130.509 255.887 144.846 255.887 144.846L254.635 144.186L256.114 117.984L259.046 117.428Z" fill="#1C1E52"/>
<path d="M235.425 134.154C236.657 134.154 237.656 133.1 237.656 131.8C237.656 130.5 236.657 129.446 235.425 129.446C234.193 129.446 233.194 130.5 233.194 131.8C233.194 133.1 234.193 134.154 235.425 134.154Z" fill="#F2C6A8"/>
<path d="M255.769 134.154C257.001 134.154 258 133.1 258 131.8C258 130.5 257.001 129.446 255.769 129.446C254.537 129.446 253.538 130.5 253.538 131.8C253.538 133.1 254.537 134.154 255.769 134.154Z" fill="#F2C6A8"/>
<path d="M236.313 122.21C236.313 122.21 233.863 137.658 236.79 141.127C239.717 144.597 242.915 145.48 242.915 145.48V157.796L254.347 157.114L255.642 153.509L256.119 136.971V119.55L242.101 116.282L236.313 122.21Z" fill="#FED47E"/>
<path d="M256.114 123.339C256.114 123.339 248.086 127.854 236.926 122.411C225.765 116.969 239.511 109.006 246.927 111.456C254.342 113.906 258.901 116.015 259.789 118.736C260.673 121.462 256.114 123.339 256.114 123.339Z" fill="#1C1E52"/>
<path d="M242.101 151.641C242.101 151.641 245.584 158.535 255.642 153.509L264.816 157.796V172.207L259.142 207.15H235.355L234.703 157.796L242.101 151.641Z" fill="#FDBD56"/>
<path d="M276.379 201.726L273.068 203.567L275.268 208.415L280.046 205.991L278.869 201.726H276.379Z" fill="#FED47E"/>
<path d="M196.68 168.287L193.749 165.885L190.056 169.718L194.068 173.262L197.599 170.597L196.68 168.287Z" fill="#FED47E"/>
<path d="M229.125 206.582L272.494 207.842L273.085 321.412H262.716L250.471 224.624H249.193L240.688 321.412H229.125V206.582Z" fill="#1C1E52"/>
<path d="M259.374 152.909C259.374 152.909 276.082 155.141 283.581 164.385C291.075 173.629 303.198 186.251 301.947 191.121C300.696 195.994 279.332 207.737 279.332 207.737L275.959 200.864C275.959 200.864 292.326 190.744 291.95 188.867C291.574 186.995 277.206 176.123 277.206 176.123L275.334 180.319C275.334 180.319 272.617 221.89 273.129 228.409C273.641 234.927 255.747 224.703 251.656 218.823C247.566 212.943 245.273 193.168 245.273 193.168L257.405 152.905H259.374V152.909Z" fill="#FD8061"/>
<path d="M239.765 152.358C239.765 152.358 227.944 155.639 224.741 160.216C221.539 164.792 211.669 181.146 211.669 181.146L197.988 167.587C197.988 167.587 191.57 172.19 191.57 173.157C191.57 174.124 210.697 195.312 213.966 194.222C217.234 193.133 227.887 175.095 227.887 175.095C227.887 175.095 227.808 221.067 227.419 224.375C227.029 227.682 240.181 221.872 245.273 193.181L241.051 152.065L239.765 152.358Z" fill="#FD8061"/>
<path d="M274.091 210.664C274.091 210.664 271.593 213.223 268.067 211.539C264.541 209.854 266.82 203.856 269.314 203.318C271.808 202.78 275.706 201.97 276.292 203.318C276.878 204.665 276.292 206.214 276.292 206.214L274.091 210.664Z" fill="#FED47E"/>
<path d="M187.527 169.456C187.527 169.456 184.224 168.077 184.491 164.179C184.758 160.281 191.172 160.185 192.594 162.307C194.016 164.429 196.203 167.749 195.166 168.791C194.129 169.832 192.471 169.858 192.471 169.858L187.527 169.456Z" fill="#FED47E"/>
<path d="M242.915 150.516L245.277 193.168L236.829 162.403L239.852 160.942L236.829 157.796C236.829 157.796 238.597 152.244 239.844 151.002C241.091 149.755 242.915 149.689 242.915 149.689V150.516Z" fill="#1C1E52"/>
<path d="M255.76 149.234L255.637 153.509L245.273 193.168L259.903 161.187L258 158.846L259.903 157.061C259.903 157.061 259.601 151.671 258.372 150.201C257.142 148.735 255.76 149.234 255.76 149.234Z" fill="#1C1E52"/>
<path d="M239.642 331.383H222.282C222.282 331.383 223.696 323.67 229.996 324.952C236.296 326.238 237.556 328.167 238.789 326.365C240.027 324.567 239.642 331.383 239.642 331.383Z" fill="#1C1E52"/>
<path d="M272.389 331.383H255.029C255.029 331.383 256.443 323.67 262.743 324.952C269.043 326.238 270.303 328.167 271.536 326.365C272.774 324.567 272.389 331.383 272.389 331.383Z" fill="#1C1E52"/>
</svg>
