<svg width="350" height="350" viewBox="0 0 350 350" fill="none" xmlns="http://www.w3.org/2000/svg">
<path d="M67.9778 117.059C69.0116 120.604 70.4472 124.023 72.262 127.231L67.0898 133.752C65.4014 135.884 65.5926 138.924 67.4917 140.843L76.3972 149.748C78.319 151.67 81.3555 151.838 83.4879 150.15L89.9662 145.02C93.3009 146.942 96.8463 148.439 100.541 149.495L101.513 157.831C101.831 160.533 104.109 162.559 106.812 162.559H119.412C122.114 162.559 124.393 160.533 124.71 157.831L125.64 149.79C129.607 148.756 133.408 147.214 136.973 145.211L143.241 150.169C145.373 151.858 148.413 151.667 150.331 149.768L159.237 140.862C161.159 138.94 161.327 135.904 159.639 133.771L154.765 127.588C156.79 124.085 158.375 120.348 159.428 116.443L166.94 115.578C169.643 115.26 171.668 112.982 171.668 110.279V97.6792C171.668 94.9764 169.643 92.6982 166.94 92.3806L159.532 91.5153C158.518 87.6523 157.001 83.9611 155.056 80.5L159.616 74.738C161.305 72.6056 161.113 69.5657 159.214 67.6472L150.328 58.7611C148.406 56.8394 145.37 56.6708 143.237 58.3593L137.644 62.7926C134.014 60.6602 130.132 59.0366 126.058 57.938L125.216 50.6981C124.898 47.9954 122.62 45.9699 119.917 45.9699H107.317C104.614 45.9699 102.336 47.9954 102.018 50.6981L101.176 57.938C96.9986 59.056 93.0092 60.7444 89.2954 62.9611L83.4912 58.3593C81.3588 56.6708 78.319 56.862 76.4005 58.7611L67.4949 67.6667C65.5731 69.5884 65.4046 72.625 67.093 74.7574L71.9477 80.8986C70.0065 84.4019 68.5287 88.1384 67.5565 92.0208L59.7884 92.9088C57.0856 93.2264 55.0602 95.5046 55.0602 98.2074V110.807C55.0602 113.51 57.0856 115.788 59.7884 116.106L67.9778 117.059ZM113.627 82.9727C125.109 82.9727 134.458 92.3222 134.458 103.804C134.458 115.286 125.109 124.636 113.627 124.636C102.145 124.636 92.7954 115.286 92.7954 103.804C92.7954 92.3222 102.148 82.9727 113.627 82.9727Z" fill="#FED47E" fill-opacity="0.5"/>
<path d="M238.188 120.16L231.541 114.547C229.493 112.817 226.476 112.901 224.535 114.738L220.863 118.18C217.762 116.683 214.469 115.626 211.07 115.014L210.036 109.949C209.507 107.33 207.08 105.515 204.423 105.729L195.747 106.468C193.087 106.701 191 108.873 190.915 111.553L190.747 116.702C187.412 117.905 184.269 119.551 181.397 121.618L177.006 118.705C174.77 117.227 171.792 117.649 170.061 119.697L164.448 126.386C162.718 128.434 162.802 131.451 164.636 133.392L168.476 137.485C167.148 140.483 166.198 143.626 165.647 146.854L160.161 147.972C157.542 148.5 155.727 150.928 155.941 153.585L156.68 162.261C156.914 164.921 159.085 167.008 161.765 167.093L167.695 167.284C168.771 170.113 170.188 172.793 171.895 175.305L168.583 180.305C167.106 182.541 167.527 185.519 169.575 187.25L176.222 192.863C178.27 194.594 181.287 194.509 183.228 192.672L187.577 188.598C190.426 189.927 193.424 190.919 196.506 191.512L197.708 197.462C198.236 200.08 200.664 201.895 203.321 201.681L211.996 200.942C214.657 200.709 216.744 198.538 216.828 195.857L217.02 190.034C220.186 188.916 223.183 187.396 225.948 185.516L230.738 188.682C232.974 190.16 235.949 189.739 237.683 187.691L243.295 181.044C245.026 178.996 244.942 175.979 243.104 174.038L239.241 169.944C240.654 166.947 241.691 163.781 242.281 160.53L247.557 159.454C250.176 158.926 251.99 156.499 251.776 153.841L251.038 145.166C250.804 142.505 248.633 140.418 245.953 140.334L240.654 140.165C239.556 137.083 238.078 134.173 236.244 131.47L239.134 127.121C240.658 124.888 240.236 121.891 238.188 120.16ZM205.499 170.307C196.13 171.111 187.856 164.124 187.075 154.752C186.271 145.383 193.258 137.109 202.631 136.328C212 135.528 220.273 142.512 221.054 151.884C221.855 161.253 214.868 169.526 205.499 170.307Z" fill="#FED47E" fill-opacity="0.5"/>
<path d="M98.3273 193.647C95.6666 193.923 93.6217 196.159 93.599 198.839L93.5342 204.18C93.4921 206.86 95.4754 209.138 98.1361 209.478L102.061 209.984C102.715 212.369 103.642 214.647 104.848 216.802L102.317 219.926C100.628 222.017 100.755 225.011 102.634 226.933L106.371 230.754C108.25 232.675 111.245 232.886 113.377 231.24L116.521 228.812C118.737 230.122 121.081 231.156 123.527 231.872L123.949 235.923C124.224 238.583 126.46 240.628 129.14 240.651L134.481 240.716C137.161 240.758 139.439 238.775 139.78 236.114L140.266 232.274C142.926 231.619 145.457 230.627 147.862 229.318L150.818 231.703C152.908 233.392 155.906 233.265 157.824 231.386L161.645 227.649C163.567 225.769 163.777 222.775 162.131 220.643L159.872 217.71C161.266 215.389 162.342 212.92 163.081 210.324L166.584 209.964C169.244 209.689 171.289 207.453 171.312 204.773L171.374 199.432C171.416 196.752 169.432 194.474 166.772 194.133L163.353 193.689C162.698 191.113 161.729 188.624 160.462 186.304L162.594 183.685C164.283 181.595 164.156 178.6 162.277 176.679L158.54 172.858C156.661 170.936 153.666 170.725 151.534 172.372L148.98 174.336C146.575 172.881 143.999 171.759 141.3 171.001L140.962 167.689C140.687 165.028 138.451 162.983 135.771 162.961L130.43 162.896C127.75 162.854 125.472 164.837 125.131 167.498L124.71 170.79C121.923 171.506 119.243 172.605 116.754 174.041L114.116 171.889C112.026 170.2 109.028 170.327 107.11 172.206L103.269 175.962C101.348 177.842 101.137 180.837 102.783 182.969L105.042 185.882C103.733 188.203 102.699 190.672 102.025 193.268L98.3273 193.647ZM132.793 187.613C140.454 187.697 146.595 194.007 146.511 201.668C146.426 209.329 140.117 215.47 132.456 215.386C124.794 215.302 118.653 208.992 118.737 201.331C118.822 193.67 125.131 187.529 132.793 187.613Z" fill="#FED47E" fill-opacity="0.5" stroke="#F7F7F7" stroke-width="3" stroke-miterlimit="10"/>
<path d="M332.406 319.913H17.594C15.4583 319.913 13.7083 318.166 13.7083 316.027V295.465C13.7083 293.329 15.4551 291.579 17.594 291.579H332.406C334.542 291.579 336.292 293.326 336.292 295.465V316.027C336.292 318.166 334.545 319.913 332.406 319.913Z" fill="#F2F2F2"/>
<path d="M53.0996 303.068C60.6051 303.068 63.7746 297.072 65.0222 290.714C66.4287 283.539 65.3982 275.904 65.3982 275.904H40.8009C40.8009 275.904 40.7621 276.195 40.7102 276.714C40.25 281.228 38.7722 303.068 53.0996 303.068Z" fill="#1C1E52"/>
<path d="M40.801 275.904C40.801 276.442 46.307 276.876 53.0963 276.876C59.8889 276.876 65.3949 276.442 65.3949 275.904C65.3949 275.366 59.8889 274.931 53.0963 274.931C46.307 274.931 40.801 275.366 40.801 275.904Z" fill="#FCC24A"/>
<path d="M19.801 207.725C19.801 207.725 32.7704 227.455 40.5514 239.497C48.3324 251.54 50.3709 254.042 51.2977 257.931C52.2246 261.823 53.0574 276.179 53.0574 276.179H53.6311C53.6311 276.179 53.4301 263.994 52.7301 259.891C52.0528 255.928 52.7787 254.502 53.3329 250.334C53.8903 246.167 54.6292 239.497 50.4162 234.863C46.2 230.232 47.3116 225.692 45.8306 222.636C44.3496 219.58 32.8612 215.872 31.3801 212.725C29.8959 209.579 23.4111 207.634 19.801 207.725Z" fill="#1C1E52"/>
<path d="M19.801 207.725C19.801 207.725 23.8778 212.356 26.6551 213.931C29.4357 215.506 30.732 214.116 32.8612 217.914C34.9903 221.712 35.0746 223.378 37.0255 225.325C38.9764 227.27 41.2903 227.364 41.4783 231.625C41.663 235.887 40.5514 239.5 40.5514 239.5C40.5514 239.5 20.6338 208.746 19.801 207.725Z" fill="#FD8061"/>
<path d="M52.0269 276.182H51.4468C51.4468 276.182 51.2718 272.238 49.7065 270.323C48.6954 269.088 44.4047 267.685 40.1593 266.003C37.8227 265.076 35.4991 264.068 33.7491 262.954C28.8167 259.82 24.1144 249.722 23.7125 247.923C23.5699 247.298 23.5084 246.915 23.5116 246.656V246.65C23.5213 246.167 23.7611 246.092 24.1759 245.606C24.3736 245.369 24.9764 245.45 25.7088 245.674C27.838 246.322 29.6301 247.781 30.7449 249.706C31.7722 251.488 33.4185 253.714 35.4343 254.252C38.9148 255.182 38.6264 255.759 39.913 259.301C41.1931 262.843 44.4338 263.42 48.4912 267.598C52.5519 271.772 52.0269 276.182 52.0269 276.182Z" fill="#1C1E52"/>
<path d="M40.1593 266C37.8227 265.073 35.4991 264.065 33.7491 262.95C28.8167 259.817 24.1144 249.719 23.7125 247.92C23.5699 247.294 23.5084 246.912 23.5116 246.653C23.5246 246.773 23.7547 248.37 26.3246 249.43C28.9917 250.529 29.5134 250.529 29.8634 252.214C30.2102 253.896 30.5051 255.694 31.8954 256.044C33.2889 256.391 34.1574 254.826 35.2593 257.376C36.3644 259.93 36.8894 260.799 37.9005 261.149C38.9148 261.495 39.6829 260.974 39.9097 262.947C40.0426 264.156 40.1204 265.297 40.1593 266Z" fill="#FD8061"/>
<path d="M56.2917 276.182H56.982C56.982 276.182 58.3269 251.757 60.1838 249.488C61.3797 248.024 65.3269 245.402 70.3533 243.409C73.1209 242.313 75.8723 241.114 77.9463 239.795C83.7894 236.085 89.357 224.123 89.8366 221.994C90.0051 221.252 90.0797 220.801 90.0764 220.494V220.484C90.0635 219.91 89.7783 219.823 89.2889 219.246C89.0524 218.967 88.3394 219.061 87.4709 219.327C84.9496 220.095 82.8237 221.819 81.5079 224.1C80.2894 226.21 78.3417 228.848 75.9565 229.483C71.8343 230.585 72.1746 231.269 70.6547 235.463C69.138 239.656 65.301 240.34 60.4949 245.288C55.6727 250.24 56.2917 276.182 56.2917 276.182Z" fill="#1C1E52"/>
<path d="M70.3501 243.409C73.1177 242.313 75.8691 241.114 77.9432 239.795C83.7862 236.085 89.3538 224.123 89.8334 221.994C90.002 221.252 90.0765 220.801 90.0732 220.494C90.057 220.633 89.7848 222.525 86.7418 223.786C83.582 225.089 82.9631 225.089 82.5515 227.085C82.1399 229.078 81.7932 231.211 80.1436 231.622C78.4941 232.034 77.4635 230.18 76.1607 233.2C74.8547 236.224 74.2325 237.255 73.0302 237.666C71.8311 238.078 70.9172 237.459 70.6515 239.799C70.4862 241.221 70.3955 242.576 70.3501 243.409Z" fill="#FD8061"/>
<path d="M53.0996 303.068C60.6051 303.068 63.7746 297.072 65.0223 290.714C57.6658 287.924 48.4005 283.451 40.7135 276.714C40.25 281.228 38.7723 303.068 53.0996 303.068Z" fill="#1C1E52"/>
<path d="M312.663 303.068C317.388 303.068 319.385 299.292 320.169 295.29C321.057 290.772 320.406 285.966 320.406 285.966H304.921C304.921 285.966 304.899 286.148 304.863 286.478C304.575 289.32 303.644 303.068 312.663 303.068Z" fill="#FD8061"/>
<path d="M304.921 285.966C304.921 286.303 308.389 286.579 312.663 286.579C316.938 286.579 320.406 286.303 320.406 285.966C320.406 285.629 316.938 285.354 312.663 285.354C308.389 285.354 304.921 285.629 304.921 285.966Z" fill="#FCC24A"/>
<path d="M297.335 256.809C297.335 256.809 302.893 265.264 306.227 270.424C309.562 275.583 310.434 276.656 310.832 278.321C311.231 279.987 311.587 286.141 311.587 286.141H311.834C311.834 286.141 311.75 280.92 311.448 279.161C311.156 277.462 311.468 276.853 311.707 275.064C311.944 273.279 312.262 270.42 310.456 268.437C308.651 266.454 309.128 264.506 308.493 263.197C307.857 261.888 302.935 260.3 302.3 258.948C301.661 257.603 298.884 256.767 297.335 256.809Z" fill="#1C1E52"/>
<path d="M297.335 256.809C297.335 256.809 299.081 258.793 300.271 259.47C301.46 260.144 302.018 259.548 302.931 261.178C303.845 262.805 303.881 263.521 304.714 264.354C305.55 265.187 306.542 265.226 306.623 267.053C306.7 268.878 306.227 270.427 306.227 270.427C306.227 270.427 297.691 257.244 297.335 256.809Z" fill="#FD8061"/>
<path d="M313.551 286.141H314.073C314.073 286.141 315.094 267.624 316.501 265.906C317.408 264.798 320.399 262.808 324.207 261.298C326.304 260.465 328.391 259.561 329.963 258.559C334.393 255.746 338.612 246.682 338.975 245.065C339.105 244.501 339.16 244.161 339.157 243.927V243.921C339.147 243.487 338.933 243.422 338.56 242.984C338.382 242.774 337.841 242.845 337.183 243.046C335.274 243.629 333.66 244.935 332.662 246.666C331.739 248.263 330.261 250.263 328.452 250.746C325.325 251.582 325.584 252.101 324.434 255.28C323.283 258.459 320.376 258.977 316.731 262.73C313.082 266.476 313.551 286.141 313.551 286.141Z" fill="#1C1E52"/>
<path d="M324.207 261.298C326.304 260.465 328.391 259.561 329.963 258.559C334.393 255.746 338.612 246.682 338.975 245.065C339.105 244.501 339.16 244.161 339.157 243.927C339.144 244.034 338.939 245.47 336.632 246.423C334.237 247.411 333.767 247.411 333.456 248.925C333.145 250.435 332.883 252.052 331.632 252.363C330.381 252.674 329.6 251.268 328.611 253.559C327.62 255.85 327.15 256.631 326.239 256.945C325.328 257.257 324.638 256.79 324.434 258.563C324.311 259.642 324.243 260.666 324.207 261.298Z" fill="#FD8061"/>
<path d="M312.663 303.068C317.388 303.068 319.385 299.292 320.169 295.29C315.538 293.533 309.705 290.717 304.863 286.475C304.575 289.32 303.644 303.068 312.663 303.068Z" fill="#1C1E52"/>
<path d="M249.142 88.3685L251.112 83.6759C251.112 83.6759 248.788 80.2958 247.317 79.6023C245.843 78.9088 242.641 80.4449 242.641 80.4449L241.62 82.3764L242.398 85.2056L246.731 92.3255L250.282 90.5333L249.142 88.3685Z" fill="#FD8061"/>
<path d="M278.94 134.222C268.768 127.711 254.605 116.634 251.297 88.8611C248.766 88.6666 244.874 88.8611 244.874 88.8611C244.874 88.8611 247.926 128.67 271.318 141.442C273.765 142.777 277.411 155.299 280.324 155.97C281.089 153.329 278.94 134.222 278.94 134.222Z" fill="#1C1E52"/>
<path d="M288.935 293.669L273.052 308.664L278.911 309.588C280.522 309.844 282.174 309.601 283.646 308.894L292.882 304.455V292.457L288.935 293.669Z" fill="#072735"/>
<path d="M268.012 295.296L260.513 297.587C257.542 298.495 254.832 300.106 252.616 302.283H276.221L275.113 292.464L268.012 295.296Z" fill="#072735"/>
<path d="M276.221 200.472C276.221 200.472 261.132 241.506 259.807 244.494C258.478 247.486 268.016 295.296 268.016 295.296H276.15L270.518 248.121L290.549 214.284L287.499 198.346L276.221 200.472Z" fill="#0A3B56"/>
<path d="M276.221 189.47L285.639 296.333H294.599L294.865 186.365L276.221 189.47Z" fill="#535867"/>
<path d="M274.163 142.722L273.055 146.9V184.259L295.056 183.718L287.924 137.375L284.012 134.63L276.685 138.603L274.163 142.722Z" fill="#F7F7F7"/>
<path d="M276.221 141.931L273.055 164.046L271.888 205.064H298.754C298.754 205.064 293.076 139.193 288.539 136.532C284.333 134.993 280.891 134.556 277.187 138.146C277.119 139.472 276.221 141.931 276.221 141.931Z" fill="#1C1E52"/>
<path d="M276.221 127.672C276.221 127.883 276.921 135.21 276.921 135.21H282.298L284.605 131.441L277.676 127.248L276.221 127.672Z" fill="#FD8061"/>
<path d="M278.159 111.021C277.838 111.501 271.606 121.567 273.366 127.322C276.244 129.558 280.237 131.156 280.237 131.156C280.237 131.156 284.07 130.038 286.627 124.765C289.184 119.489 288.708 111.66 278.159 111.021Z" fill="#FFE3CA"/>
<path d="M295.685 119.233C296.719 121.444 291.417 133.188 283.027 134.018C280.998 132.66 280.486 131.156 280.486 131.156L279.174 116.719L295.121 117.075L295.685 119.233Z" fill="#535867"/>
<path d="M279.177 116.719C277.113 112.81 275.35 108.613 279.177 104.676C282.33 106.251 299.662 113.569 295.497 119.535C293.922 121.087 279.177 116.719 279.177 116.719Z" fill="#535867"/>
<path d="M279.177 114.725C279.199 114.894 277.676 119.869 277.676 119.869L278.425 120.248L282.294 116.304L279.177 114.725Z" fill="#535867"/>
<path d="M281.064 122.057C282.088 120.686 282.344 119.146 281.636 118.617C280.928 118.087 279.523 118.769 278.499 120.14C277.475 121.51 277.219 123.051 277.927 123.58C278.635 124.109 280.04 123.427 281.064 122.057Z" fill="#FFE3CA"/>
<path d="M286.53 134.018C282.602 133.713 277.226 133.434 274.795 137.265C274.235 139.789 274.141 143.341 274.141 143.341C274.141 143.341 278.318 134.834 287.496 135.956C288.167 135.113 288.539 134.458 288.539 134.458L286.53 134.018Z" fill="#F2F2F2"/>
<path d="M285.772 182.783L254.031 173.678L251.528 182.404L283.27 191.508L285.772 182.783Z" fill="#CCE9FF"/>
<path d="M266.612 178.691L266.557 176.964L250.882 172.469L250.428 174.047L249.576 177.019L243.726 197.416L279.656 207.722L286.358 184.353L266.612 178.691Z" fill="#FD8061"/>
<path d="M258.656 194.892C258.656 194.892 255.688 199.675 254.223 201.425C253.87 201.849 253.293 202.015 252.768 201.843C250.684 201.166 245.94 198.751 245.94 198.751L256.333 192.221L258.656 194.892Z" fill="#FD8061"/>
<path d="M291.168 150.098C292.756 143.024 284.32 135.33 280.486 139.705C272.067 149.307 275.272 179.916 252.771 192.827C254.142 194.198 257.389 197.734 257.389 197.734C257.389 197.734 272.232 193.55 291.168 150.098Z" fill="#1B75B2"/>
<path d="M253.766 83.3389L253.458 84.8069L240.495 81.7023L238.959 80.6782H240.904L253.766 83.3389Z" fill="#1C1E52"/>
<path d="M239.076 83.5204L228.864 85.8375L231.058 88.3102L185.39 128.476L158.913 117.143L141.588 136.532L116.417 126.629L95.9226 151.226L74.1708 140.263L31.9634 185.766L34.9092 188.498L75.062 145.211L96.9629 156.249L117.649 131.431L142.719 141.293L159.986 121.972L186.138 133.165L233.719 91.3209L235.401 93.2005L239.076 83.5204Z" fill="white" stroke="#1C1E52" stroke-miterlimit="10"/>
<path d="M229.67 83.3251L238.148 81.4013L235.093 89.44L233.963 88.1719L233.632 87.8012L233.259 88.1292L185.915 129.769L160.053 118.699L159.723 118.558L159.483 118.826L142.448 137.887L117.702 128.15L117.366 128.018L117.135 128.295L96.7036 152.811L75.1575 141.948L74.8216 141.779L74.5658 142.055L34.753 184.978L32.5404 182.926L74.152 138.062L95.568 148.859L95.9228 149.038L96.1772 148.733L116.44 124.413L141.275 134.182L141.599 134.309L141.831 134.049L158.917 114.931L185.063 126.119L185.353 126.244L185.59 126.035L231.259 85.8727L231.636 85.541L231.303 85.1654L229.67 83.3251Z" fill="#FD8061" stroke="#1C1E52"/>
<path d="M310.314 107.213C310.314 107.473 310.217 107.709 310.055 107.887C310.217 108.066 310.314 108.302 310.314 108.562V109.404C310.314 109.589 310.265 109.761 310.178 109.91C310.265 110.059 310.314 110.231 310.314 110.415V111.258C310.314 111.815 309.86 112.269 309.303 112.269H300.537C299.979 112.269 299.525 111.815 299.525 111.258V110.415C299.525 110.231 299.574 110.059 299.661 109.91C299.574 109.761 299.525 109.589 299.525 109.404V108.562C299.525 108.302 299.623 108.066 299.785 107.887C299.623 107.709 299.525 107.473 299.525 107.213V106.371C299.525 105.813 299.979 105.36 300.537 105.36H309.303C309.86 105.36 310.314 105.813 310.314 106.371V107.213Z" fill="#1C1E52"/>
<path d="M317.311 88.1254C317.311 93.0352 314.456 97.2773 310.314 99.2833V103.853C310.314 104.196 310.032 104.475 309.692 104.475H300.151C299.807 104.475 299.529 104.193 299.529 103.853V99.2833C295.387 97.2773 292.532 93.0352 292.532 88.1254C292.532 81.281 298.08 75.7361 304.921 75.7361C311.763 75.7361 317.311 81.2842 317.311 88.1254Z" fill="#FD8061"/>
<path d="M309.141 108.173H300.838C300.721 108.173 300.624 108.079 300.624 107.959C300.624 107.842 300.718 107.745 300.838 107.745H309.144C309.261 107.745 309.358 107.839 309.358 107.959C309.355 108.079 309.261 108.173 309.141 108.173Z" fill="#F7F7F7"/>
<path d="M309.141 110.078H300.838C300.721 110.078 300.624 109.984 300.624 109.864C300.624 109.748 300.718 109.65 300.838 109.65H309.144C309.261 109.65 309.358 109.744 309.358 109.864C309.355 109.984 309.261 110.078 309.141 110.078Z" fill="#F7F7F7"/>
<path d="M307.044 89.6518C306.888 89.5125 306.678 89.4476 306.448 89.4703C306.166 89.4995 305.884 89.6583 305.715 89.8884C305.563 90.0925 305.482 90.3356 305.437 90.5689C305.31 90.5041 305.181 90.4328 305.054 90.355L305.006 90.3259H304.834L304.785 90.355C304.656 90.4328 304.529 90.5041 304.403 90.5689C304.357 90.3356 304.276 90.0925 304.124 89.8884C303.956 89.6583 303.674 89.4995 303.392 89.4703C303.165 89.4476 302.954 89.5125 302.795 89.6518C302.591 89.8365 302.517 90.112 302.598 90.4069C302.701 90.7828 303.025 91.0972 303.385 91.1717C303.615 91.2171 303.839 91.2009 304.059 91.1425V91.149C304.403 95.5662 304.529 100.048 304.435 104.478H304.843C304.934 100.038 304.808 95.5435 304.464 91.1166C304.461 91.0777 304.458 91.0388 304.455 90.9967C304.61 90.9254 304.766 90.8412 304.915 90.7537C305.067 90.8412 305.219 90.9254 305.375 90.9967C305.372 91.0388 305.369 91.0777 305.365 91.1166C305.022 95.5435 304.895 100.035 304.986 104.478H305.394C305.33 100.058 305.553 95.6148 305.77 91.149V91.1425C305.991 91.2009 306.214 91.2203 306.444 91.1717C306.804 91.0972 307.128 90.7861 307.232 90.4069C307.323 90.112 307.251 89.8398 307.044 89.6518ZM303.466 90.7699C303.259 90.7277 303.055 90.5236 302.993 90.3C302.967 90.1995 302.957 90.0601 303.071 89.9564C303.142 89.8916 303.23 89.8754 303.304 89.8754C303.32 89.8754 303.337 89.8754 303.353 89.8787C303.521 89.8949 303.696 89.9953 303.797 90.1314C303.92 90.2967 303.981 90.5009 304.017 90.731C303.832 90.7861 303.648 90.8087 303.466 90.7699ZM306.846 90.3C306.785 90.5268 306.581 90.7277 306.373 90.7699C306.192 90.8055 306.007 90.7861 305.822 90.7277C305.858 90.4976 305.919 90.2935 306.043 90.1282C306.143 89.9921 306.318 89.8916 306.487 89.8754C306.568 89.8657 306.681 89.8754 306.768 89.9532C306.885 90.0601 306.875 90.1995 306.846 90.3Z" fill="white"/>
<path d="M293.757 89.762C293.592 89.762 293.449 89.6324 293.439 89.4639C293.031 83.0407 297.818 78.9153 301.136 77.7065C301.301 77.6449 301.486 77.7324 301.545 77.8977C301.606 78.0629 301.519 78.2477 301.353 78.306C298.216 79.4467 293.686 83.3486 294.075 89.4217C294.084 89.5967 293.951 89.7491 293.776 89.762C293.77 89.762 293.763 89.762 293.757 89.762Z" fill="white"/>
</svg>
