<svg width="350" height="350" viewBox="0 0 350 350" fill="none" xmlns="http://www.w3.org/2000/svg">
<path opacity="0.51" d="M322.956 140.557C322.956 140.557 365.689 219.589 302.134 265.206C238.58 310.823 203.966 247.366 153.054 301.428C115.5 341.305 -11.4106 272.968 41.7764 205.042C94.9635 137.116 138.898 130.352 139.9 58.1065C140.901 -14.1393 263.851 11.1936 322.956 140.557Z" fill="#FED47E" fill-opacity="0.5"/>
<path d="M59.2829 54.2435H290.714C295.721 54.2435 299.782 58.3042 299.782 63.3111V227.283C299.782 232.29 295.721 236.35 290.714 236.35H59.2829C54.276 236.35 50.2153 232.29 50.2153 227.283V63.3111C50.2153 58.3042 54.276 54.2435 59.2829 54.2435Z" fill="#F7F7F7"/>
<path d="M299.785 62.757C299.785 58.0546 296.486 54.2435 292.412 54.2435H57.588C53.5176 54.2435 50.2153 58.0546 50.2153 62.757V224.755H299.782V62.757H299.785Z" fill="#1C1E52"/>
<path d="M290.892 67.7153H60.0867V211.569H290.892V67.7153Z" fill="white"/>
<path d="M237.732 181.068H81.5644C78.4889 181.068 76 178.576 76 175.504V95.5644C76 92.4889 78.4921 90 81.5644 90H237.732C240.808 90 243.297 92.4921 243.297 95.5644V175.5C243.3 178.576 240.808 181.068 237.732 181.068Z" fill="#FED47E" fill-opacity="0.5"/>
<path d="M148.573 151.577V143.621C148.573 143.44 148.421 143.291 148.236 143.291C148.051 143.291 147.899 143.44 147.899 143.621V151.577C147.29 151.636 146.807 152.135 146.807 152.76V158.684C146.807 159.31 147.29 159.806 147.899 159.867V163.435C147.899 163.617 148.051 163.766 148.236 163.766C148.421 163.766 148.573 163.617 148.573 163.435V159.864C149.182 159.806 149.665 159.307 149.665 158.681V152.757C149.665 152.132 149.182 151.636 148.573 151.577Z" fill="#FD8061"/>
<path d="M154.675 139.995V132.039C154.675 131.857 154.523 131.708 154.338 131.708C154.154 131.708 154.001 131.857 154.001 132.039V139.995C153.392 140.053 152.909 140.552 152.909 141.178V155.881C152.909 156.506 153.392 157.002 154.001 157.064V160.632C154.001 160.813 154.154 160.962 154.338 160.962C154.526 160.962 154.675 160.813 154.675 160.632V157.064C155.285 157.005 155.768 156.506 155.768 155.881V141.178C155.768 140.552 155.285 140.056 154.675 139.995Z" fill="#FD8061"/>
<path d="M160.778 131.556V127.988C160.778 127.806 160.625 127.657 160.441 127.657C160.253 127.657 160.104 127.803 160.104 127.988V131.556C159.494 131.614 159.012 132.113 159.012 132.739V160.612C159.012 161.238 159.494 161.734 160.104 161.795V169.755C160.104 169.936 160.256 170.085 160.441 170.085C160.629 170.085 160.778 169.939 160.778 169.755V161.795C161.387 161.737 161.87 161.238 161.87 160.612V132.739C161.87 132.113 161.387 131.614 160.778 131.556Z" fill="#1E1F26"/>
<path d="M166.88 139.677V136.109C166.88 135.928 166.728 135.779 166.543 135.779C166.358 135.779 166.206 135.925 166.206 136.109V139.677C165.597 139.736 165.114 140.235 165.114 140.86V155.563C165.114 156.189 165.597 156.685 166.206 156.746V160.314C166.206 160.496 166.358 160.645 166.543 160.645C166.731 160.645 166.88 160.496 166.88 160.314V156.746C167.489 156.688 167.972 156.189 167.972 155.563V140.86C167.972 140.235 167.489 139.736 166.88 139.677Z" fill="#FD8061"/>
<path d="M172.983 146.548V142.98C172.983 142.798 172.83 142.649 172.645 142.649C172.461 142.649 172.308 142.798 172.308 142.98V146.548C171.699 146.606 171.216 147.105 171.216 147.731V158.043C171.216 158.668 171.699 159.164 172.308 159.225V171.573C172.308 171.754 172.461 171.903 172.645 171.903C172.83 171.903 172.983 171.754 172.983 171.573V159.225C173.592 159.167 174.075 158.668 174.075 158.043V147.731C174.075 147.105 173.592 146.606 172.983 146.548Z" fill="#FD8061"/>
<path d="M179.082 150.226V146.658C179.082 146.476 178.929 146.327 178.745 146.327C178.56 146.327 178.407 146.473 178.407 146.658V150.226C177.798 150.284 177.315 150.783 177.315 151.409V157.333C177.315 157.958 177.798 158.454 178.407 158.516V162.084C178.407 162.265 178.56 162.414 178.745 162.414C178.932 162.414 179.082 162.265 179.082 162.084V158.516C179.691 158.457 180.174 157.958 180.174 157.333V151.409C180.177 150.783 179.691 150.284 179.082 150.226Z" fill="#FD8061"/>
<path d="M185.184 150.861V147.293C185.184 147.112 185.032 146.963 184.847 146.963C184.662 146.963 184.51 147.112 184.51 147.293V150.861C183.901 150.919 183.418 151.419 183.418 152.044V153.577C183.418 154.202 183.901 154.698 184.51 154.76V158.328C184.51 158.509 184.662 158.658 184.847 158.658C185.032 158.658 185.184 158.509 185.184 158.328V154.76C185.793 154.701 186.276 154.202 186.276 153.577V152.044C186.279 151.419 185.793 150.919 185.184 150.861Z" fill="#FD8061"/>
<path d="M191.286 136.161V128.205C191.286 128.024 191.134 127.875 190.949 127.875C190.764 127.875 190.612 128.024 190.612 128.205V136.161C190.003 136.219 189.52 136.718 189.52 137.344V147.656C189.52 148.281 190.003 148.777 190.612 148.839V152.407C190.612 152.588 190.764 152.737 190.949 152.737C191.137 152.737 191.286 152.588 191.286 152.407V148.839C191.895 148.781 192.378 148.281 192.378 147.656V137.344C192.382 136.718 191.895 136.223 191.286 136.161Z" fill="#1E1F26"/>
<path d="M197.388 129.022V125.454C197.388 125.272 197.236 125.123 197.051 125.123C196.867 125.123 196.714 125.272 196.714 125.454V129.022C196.105 129.08 195.622 129.579 195.622 130.205V144.908C195.622 145.533 196.105 146.029 196.714 146.091V149.659C196.714 149.84 196.867 149.989 197.051 149.989C197.236 149.989 197.388 149.84 197.388 149.659V146.091C197.998 146.032 198.481 145.533 198.481 144.908V130.205C198.484 129.579 197.998 129.083 197.388 129.022Z" fill="#FD8061"/>
<path d="M203.491 117.439V113.871C203.491 113.69 203.339 113.541 203.154 113.541C202.969 113.541 202.817 113.69 202.817 113.871V117.439C202.207 117.498 201.725 117.997 201.725 118.622V146.496C201.725 147.121 202.207 147.62 202.817 147.679V151.247C202.817 151.428 202.969 151.577 203.154 151.577C203.342 151.577 203.491 151.432 203.491 151.247V147.679C204.1 147.62 204.583 147.121 204.583 146.496V118.622C204.583 117.997 204.1 117.498 203.491 117.439Z" fill="#1E1F26"/>
<path d="M209.593 124.501V116.542C209.593 116.36 209.441 116.211 209.256 116.211C209.071 116.211 208.919 116.357 208.919 116.542V124.501C208.31 124.559 207.827 125.058 207.827 125.684V135.996C207.827 136.621 208.31 137.117 208.919 137.179V145.135C208.919 145.316 209.071 145.465 209.256 145.465C209.441 145.465 209.593 145.316 209.593 145.135V137.179C210.202 137.12 210.685 136.621 210.685 135.996V125.684C210.685 125.058 210.202 124.559 209.593 124.501Z" fill="#FD8061"/>
<path d="M215.695 114.827V111.259C215.695 111.078 215.543 110.929 215.358 110.929C215.174 110.929 215.021 111.078 215.021 111.259V114.827C214.412 114.886 213.929 115.385 213.929 116.01V117.543C213.929 118.169 214.412 118.664 215.021 118.726V122.294C215.021 122.475 215.174 122.625 215.358 122.625C215.546 122.625 215.695 122.479 215.695 122.294V118.726C216.305 118.668 216.788 118.169 216.788 117.543V116.01C216.788 115.385 216.305 114.886 215.695 114.827Z" fill="#FD8061"/>
<path d="M221.798 110.119V106.554C221.798 106.372 221.645 106.223 221.461 106.223C221.276 106.223 221.124 106.372 221.124 106.554V110.122C220.514 110.18 220.032 110.679 220.032 111.305V126.008C220.032 126.633 220.514 127.129 221.124 127.191V130.759C221.124 130.94 221.276 131.089 221.461 131.089C221.645 131.089 221.798 130.94 221.798 130.759V127.191C222.407 127.132 222.89 126.633 222.89 126.008V111.305C222.89 110.676 222.407 110.177 221.798 110.119Z" fill="#FD8061"/>
<path d="M227.9 102.292V98.7241C227.9 98.5426 227.748 98.3936 227.563 98.3936C227.378 98.3936 227.226 98.5426 227.226 98.7241V102.292C226.617 102.35 226.134 102.85 226.134 103.475V126.957C226.134 127.583 226.617 128.079 227.226 128.14V131.708C227.226 131.89 227.378 132.039 227.563 132.039C227.751 132.039 227.9 131.89 227.9 131.708V128.14C228.509 128.082 228.992 127.583 228.992 126.957V103.475C228.992 102.85 228.509 102.35 227.9 102.292Z" fill="#1E1F26"/>
<path d="M234.002 112.756V96.0181C234.002 95.8366 233.85 95.6875 233.665 95.6875C233.481 95.6875 233.328 95.8333 233.328 96.0181V112.756C232.719 112.815 232.236 113.314 232.236 113.939V150.592C232.236 151.218 232.719 151.713 233.328 151.775V159.734C233.328 159.916 233.481 160.065 233.665 160.065C233.85 160.065 234.002 159.919 234.002 159.734V151.775C234.612 151.717 235.095 151.218 235.095 150.592V113.939C235.095 113.314 234.612 112.815 234.002 112.756Z" fill="#FD8061"/>
<path d="M140.65 99.9102H84.8342V103.575H140.65V99.9102Z" fill="#FD8061"/>
<path d="M120.7 106.619H84.8342V110.284H120.7V106.619Z" fill="#1E1F26"/>
<path d="M129.715 119.87H84.8342V123.535H129.715V119.87Z" fill="#1E1F26"/>
<path d="M133.588 113.382H84.8342V117.047H133.588V113.382Z" fill="#FD8061"/>
<path d="M105.329 130.577C99.9005 131.938 94.9842 135.357 91.8634 140.526C85.5926 150.91 88.9241 164.414 99.3106 170.685C107.179 175.436 116.833 174.671 123.781 169.505L110.666 151.882L105.329 130.577Z" fill="#FD8061"/>
<path d="M131.375 144.564C129.741 139.933 126.552 135.818 122.022 133.082C116.807 129.932 110.806 129.206 105.329 130.577L110.666 151.885L131.375 144.564Z" fill="#1E1F26"/>
<path d="M131.374 144.564L110.663 151.885L123.778 169.508C125.998 167.856 127.946 165.759 129.466 163.244C133.001 157.388 133.484 150.547 131.374 144.564Z" fill="#FD8061"/>
<path d="M263.427 323.215C259.327 320.71 275.223 278.237 282.58 260.095C289.774 242.346 264.292 235.686 258.3 257.363C255.231 268.473 255.072 309.539 263.427 323.215Z" fill="#1E1F26"/>
<path d="M263.427 323.215C263.427 323.215 255.007 281.669 272.099 251.841" stroke="white" stroke-width="1.0626" stroke-miterlimit="10"/>
<path d="M250.38 272.763C237.543 254.573 224.755 269.477 233.265 282.051C241.776 294.622 263.476 323.082 263.476 323.082C263.476 323.082 263.216 290.954 250.38 272.763Z" fill="#FD8061"/>
<path d="M263.475 323.079C263.475 323.079 253.283 293.025 239.659 274.594" stroke="white" stroke-miterlimit="10"/>
<path d="M284.093 276.665C301.577 266.295 304.591 280.502 296.988 289.479C289.385 298.456 261.667 320.594 261.667 320.594C261.667 320.594 266.609 287.036 284.093 276.665Z" fill="#FD8061"/>
<path d="M261.897 318.954C261.897 318.954 269.335 301.946 292.859 281.821" stroke="white" stroke-miterlimit="10"/>
<path d="M270.968 316.474H253.27V320.052H270.968V316.474Z" fill="#FFBE55"/>
<path d="M256.424 330.53H267.812L270.025 320.056H254.21L256.424 330.53Z" fill="#FFBE55"/>
<path d="M304.562 151.709L301.551 155.559L296.246 153.653C296.308 152.979 295.527 150.889 295.799 148.4C296.026 146.368 296.22 144.621 296.22 144.621L303.871 141.28L304.102 141.18C304.098 141.222 304.095 141.264 304.095 141.306C304.072 141.64 304.059 141.967 304.053 142.288C303.923 147.995 304.562 151.709 304.562 151.709Z" fill="#FEE3CA"/>
<path d="M304.095 141.309C304.072 141.643 304.059 141.97 304.053 142.291C302.572 144.031 299.091 147.745 295.799 148.403C296.025 146.371 296.22 144.625 296.22 144.625L303.871 141.283L304.095 141.309Z" fill="#EACDB5"/>
<path d="M294.59 145.299C294.59 145.299 304.6 145.756 304.792 139.517C304.98 133.279 306.399 129.134 300.015 128.58C293.631 128.022 292.315 130.369 291.748 132.433C291.177 134.5 291.991 145.017 294.59 145.299Z" fill="#FEE3CA"/>
<path d="M304.788 139.514C304.788 139.514 304.04 131.188 295.121 131.487C286.203 131.785 290.063 123.349 297.724 122.108C297.724 122.108 296.923 125.08 301.745 125.55C311.866 126.535 305.689 138.195 304.788 139.514Z" fill="#1C1E52"/>
<path d="M304.73 139.533C304.73 139.533 305.949 136.746 305.427 135.703C304.905 134.659 304.014 136.737 304.014 136.737C304.014 136.737 303.162 138.837 303.512 139.358C303.858 139.88 304.73 139.533 304.73 139.533Z" fill="#FEE3CA"/>
<path d="M312.261 324.003L319.171 323.795L317.933 313.743L311.539 314.721L312.261 324.003Z" fill="#FEE3CA"/>
<path d="M321.559 330.342C322.35 327.694 320.493 325.769 319.91 323.432C319.55 321.99 312.31 321.099 311.591 324.259C310.904 327.282 311.455 330.342 311.455 330.342H321.559Z" fill="#474747"/>
<path d="M273.791 324.259H280.872L281.565 312.793L274.659 312.356L273.791 324.259Z" fill="#FEE3CA"/>
<path d="M280.872 323.436H274.274C274.274 323.436 273.551 323.436 271.386 325.704C269.221 327.973 264.055 325.808 261.683 330.345H281.39C281.387 330.342 283.344 326.735 280.872 323.436Z" fill="#474747"/>
<path d="M311.302 204.851L319.79 319.722H311.302L296.547 236.13L282.259 319.722H273.872L281.646 204.851H311.302Z" fill="#1C1E52"/>
<path d="M260.802 161.872C260.802 161.872 259.12 159.163 259.363 157.636C259.606 156.113 259.606 154.272 258.773 153.232C257.94 152.192 258.161 150.963 257.283 151.301C257.004 151.407 257.137 153.251 257.539 154.123C257.539 154.123 255.05 149.061 254.69 148.488C254.33 147.914 253.747 148.28 253.792 148.753C253.792 148.753 253.52 148.219 253.066 148.449C252.677 148.646 252.872 149.265 252.888 149.534C252.888 149.534 252.295 149.583 252.37 150.241C252.418 150.662 252.489 150.938 252.554 151.187C252.554 151.187 252.279 151.242 252.214 151.741C252.169 152.095 252.259 152.791 252.489 153.313C253.044 154.57 252.645 154.836 253.228 156.1C253.808 157.364 255.267 157.507 255.925 159.94C256.583 162.374 256.842 163.061 256.842 163.061L260.802 161.872Z" fill="#FEE3CA"/>
<path d="M281.899 156.019C280.253 156.269 274.429 168.451 271.231 174.226C268.035 180.001 268.035 180.001 268.035 180.001L260.303 160.203C260.303 160.203 257.726 159.791 256.177 162.06C256.177 162.06 260.303 188.767 261.333 191.758C262.364 194.749 265.563 196.914 271.234 189.797C276.905 182.684 286.702 168.865 287.525 167.32C288.348 165.77 291.42 154.577 281.899 156.019Z" fill="#FD8061"/>
<path d="M313.201 180.616C310.521 194.953 311.306 204.851 311.306 204.851H281.646C281.646 204.851 280.415 158.569 281.095 157.001C282.333 154.159 294.768 150.221 294.768 150.221L297.532 154.415L305.294 150.25C305.294 150.25 313.921 152.775 315.878 153.29C316.458 153.446 316.692 154.642 316.663 156.622C316.614 161.337 315.088 170.521 313.201 180.616Z" fill="#FD8061"/>
<path d="M313.201 180.616C310.521 194.953 311.306 204.85 311.306 204.85H307.864C307.864 204.85 308.797 169.536 313.924 158.197C314.695 156.486 315.635 156.077 316.666 156.622C316.614 161.337 315.088 170.521 313.201 180.616Z" fill="#FD8061"/>
<path d="M311.302 204.851H281.607V207.453H311.302V204.851Z" fill="#073951"/>
<path d="M287.327 192.746H251.494L242.91 169.157C242.547 168.156 243.286 167.096 244.352 167.096H276.918C277.563 167.096 278.14 167.501 278.36 168.107L287.327 192.746Z" fill="#535867"/>
<path d="M308.625 194.976H273.016C272.4 194.976 271.901 194.477 271.901 193.861C271.901 193.245 272.4 192.746 273.016 192.746H308.629C309.244 192.746 309.744 193.245 309.744 193.861C309.74 194.477 309.241 194.976 308.625 194.976Z" fill="#474747"/>
<path d="M287.217 194.976H251.605C250.989 194.976 250.49 194.477 250.49 193.861C250.49 193.245 250.989 192.746 251.605 192.746H287.217C287.833 192.746 288.332 193.245 288.332 193.861C288.332 194.477 287.833 194.976 287.217 194.976Z" fill="#1C1E52"/>
<path d="M295.74 149.217C295.74 149.217 295.75 152.396 297.536 153.896C297.536 153.896 295.643 155.4 294.583 157.169C293.912 153.4 294.775 150.221 294.775 150.221L295.74 149.217Z" fill="#FD8061"/>
<path d="M304.208 149.1C304.208 149.1 301.71 153.106 297.536 153.896C297.536 153.896 298.916 156.197 299.707 158.2C301.784 156.787 304.714 153.193 305.294 150.251L304.208 149.1Z" fill="#FD8061"/>
<path d="M311.769 164.26L313.464 184.097L310.074 186.466C310.074 186.463 311.951 169.876 311.769 164.26Z" fill="#DB9E46"/>
<path d="M288.364 191.236C288.364 191.236 285.286 191.087 284.116 190.442C282.946 189.797 280 189.674 279.394 189.674C278.788 189.674 279.355 190.682 280.081 190.805C280.807 190.925 281.695 191.573 281.695 191.573C281.695 191.573 277.135 191.978 276.004 191.897C274.873 191.816 273.541 192.14 273.946 192.704C274.351 193.268 275.035 193.31 275.035 193.31C275.035 193.31 275.359 194.159 276.004 194.279C276.004 194.279 276.286 194.885 277.174 195.005C277.174 195.005 278.023 195.41 278.386 195.41C278.386 195.41 281.695 196.055 283.591 195.734C285.486 195.41 288.75 195.219 288.75 195.219L288.364 191.236Z" fill="#FEE3CA"/>
<path d="M315.765 153.261C315.765 153.261 320.729 154.013 322.791 162.056C324.852 170.1 320.733 187.104 319.223 192.746C318.338 196.049 288.293 196.049 288.293 196.049C288.293 196.049 287.729 192.562 287.729 190.264C287.729 190.264 308.24 186.923 312.573 184.272C312.573 184.272 311.649 170.544 311.445 165.255C311.241 159.892 310.644 153.815 315.765 153.261Z" fill="#FD8061"/>
<path d="M17.4481 332.15C20.2578 332.15 23.0675 332.15 25.8773 332.15C33.5254 332.15 41.1736 332.15 48.8185 332.15C60.1286 332.15 71.4388 332.15 82.749 332.15C96.5481 332.15 110.347 332.15 124.146 332.15C139.206 332.15 154.266 332.15 169.325 332.15C184.635 332.15 199.941 332.15 215.25 332.15C229.422 332.15 243.597 332.15 257.768 332.15C269.788 332.15 281.811 332.15 293.831 332.15C302.474 332.15 311.114 332.15 319.757 332.15C323.837 332.15 327.927 332.228 332.01 332.15C332.189 332.147 332.367 332.15 332.545 332.15C334.629 332.15 334.635 328.909 332.545 328.909C329.736 328.909 326.926 328.909 324.116 328.909C316.468 328.909 308.82 328.909 301.175 328.909C289.865 328.909 278.555 328.909 267.244 328.909C253.445 328.909 239.646 328.909 225.847 328.909C210.787 328.909 195.728 328.909 180.668 328.909C165.359 328.909 150.053 328.909 134.743 328.909C120.572 328.909 106.397 328.909 92.2249 328.909C80.205 328.909 68.1819 328.909 56.162 328.909C47.5189 328.909 38.8791 328.909 30.2361 328.909C26.156 328.909 22.0662 328.832 17.9828 328.909C17.8046 328.913 17.6263 328.909 17.4481 328.909C15.3643 328.909 15.3611 332.15 17.4481 332.15Z" fill="#D3D3D3"/>
</svg>
